<?xml version="1.0" encoding="UTF-8"?>
<svg version="1.1" xmlns="http://www.w3.org/2000/svg" width="1024" height="1024">
<path d="M0 0 C1.05638672 -0.02900391 2.11277344 -0.05800781 3.20117188 -0.08789062 C10.76396847 -0.14846755 18.09428607 0.69752982 24.17724609 5.61889648 C29.64205452 11.58298143 31.01236656 18.91226269 30.96122742 26.70480347 C30.96787424 27.51192783 30.97452107 28.3190522 30.98136932 29.15063488 C30.99991746 31.83737044 30.99739899 34.52365722 30.99487305 37.21044922 C31.0038993 39.14706036 31.01422863 41.0836658 31.02575684 43.02026367 C31.05336138 48.28386207 31.06262447 53.54735226 31.06861091 58.8110137 C31.07805908 64.38130433 31.10430176 69.95151705 31.12861633 75.52175903 C31.17236805 86.13383643 31.20082353 96.74589885 31.22393972 107.35803902 C31.25051741 119.2021996 31.29469228 131.04627223 31.34018874 142.89037275 C31.42143399 164.15766962 31.47998439 185.42493918 31.52163506 206.69234848 C31.54334634 217.48531374 31.57589794 228.27808964 31.62958431 239.07094383 C31.65686349 244.57972838 31.67533229 250.08853132 31.69272804 255.59735489 C31.70207918 257.9904861 31.71483409 260.38360706 31.73142052 262.77669907 C31.75306916 265.94508983 31.76251103 269.11328564 31.76879883 272.28173828 C31.77812502 273.15623753 31.78745121 274.03073677 31.79706001 274.93173599 C31.7878844 283.89777567 31.21195389 292.562663 25.28125 299.65625 C20.78099561 303.99285877 15.4922829 306.44024862 9.22324276 306.43275452 C7.88590962 306.43481604 7.88590962 306.43481604 6.52155966 306.43691921 C5.54103661 306.43332425 4.56051357 306.42972929 3.55027771 306.42602539 C2.50938069 306.42617425 1.46848367 306.42632311 0.39604431 306.42647648 C-3.10911897 306.42577928 -6.61423053 306.41792456 -10.11938477 306.41015625 C-12.62573721 306.40823802 -15.13209003 306.40677377 -17.63844299 306.4057312 C-23.0453675 306.40256417 -28.45227568 306.3963979 -33.8591938 306.38766479 C-41.68760713 306.37511426 -49.51601539 306.36903457 -57.34443711 306.36473143 C-70.05946272 306.35765976 -82.77448199 306.34685628 -95.48950195 306.33300781 C-96.63141861 306.33176609 -96.63141861 306.33176609 -97.79640429 306.33049929 C-103.96948125 306.32375845 -110.142558 306.31683703 -116.31563473 306.30989647 C-121.70138986 306.30384655 -127.08714506 306.29786502 -132.47290039 306.29199219 C-133.23112906 306.29116406 -133.98935772 306.29033593 -134.77056301 306.28948271 C-147.42910333 306.27577966 -160.08764375 306.26602888 -172.74618953 306.25908184 C-180.55041189 306.25460803 -188.35461519 306.24658318 -196.15882867 306.23393703 C-202.14673044 306.2244872 -208.13462461 306.22016146 -214.1225338 306.2176857 C-216.57426271 306.21581634 -219.02599101 306.21222069 -221.47771454 306.20675278 C-224.83062227 306.19951197 -228.18347796 306.19850009 -231.53639221 306.19897461 C-232.5013002 306.19537965 -233.46620819 306.19178469 -234.46035582 306.18808079 C-239.81547604 306.19617018 -245.03153728 306.49529416 -250.34828418 307.14962101 C-255.69703908 307.56661948 -260.44471824 304.87062696 -264.55078125 301.66015625 C-269.00710342 297.44371892 -271.20838377 294.01428618 -271.73828125 287.765625 C-272.06467396 265.08818875 -267.62929654 243.43176971 -262.21044922 221.54736328 C-261.16181045 217.15871399 -260.26690434 212.74728725 -259.4375 208.3125 C-258.7775 208.3125 -258.1175 208.3125 -257.4375 208.3125 C-257.251875 207.45205078 -257.251875 207.45205078 -257.0625 206.57421875 C-253.29251087 191.04657602 -245.85226966 176.39001357 -238.4375 162.3125 C-238.07994629 161.62397949 -237.72239258 160.93545898 -237.35400391 160.22607422 C-228.26003378 142.81420582 -217.36676059 126.12727776 -204.4375 111.3125 C-203.43626543 110.14167963 -202.43635998 108.96972186 -201.4375 107.796875 C-198.93672839 104.86422483 -196.42927306 101.93766337 -193.90478516 99.02539062 C-192.86019606 97.80595017 -191.83008077 96.57404734 -190.81005859 95.33398438 C-190.27848145 94.69267578 -189.7469043 94.05136719 -189.19921875 93.390625 C-188.71799561 92.8018457 -188.23677246 92.21306641 -187.7409668 91.60644531 C-186.4375 90.3125 -186.4375 90.3125 -184.4375 90.3125 C-184.17710937 89.71566406 -183.91671875 89.11882812 -183.6484375 88.50390625 C-182.34849639 86.15143217 -181.1257846 84.95199215 -179.0625 83.25 C-176.04783557 80.70790459 -173.12289039 78.10326767 -170.2487793 75.40283203 C-163.66066188 69.23646574 -156.7186533 63.64017314 -149.4375 58.3125 C-148.78088379 57.83135742 -148.12426758 57.35021484 -147.44775391 56.85449219 C-94.54236334 18.3125 -94.54236334 18.3125 -75.4375 18.3125 C-75.1075 17.6525 -74.7775 16.9925 -74.4375 16.3125 C-72.33569336 15.58178711 -72.33569336 15.58178711 -69.58984375 14.90234375 C-65.63700315 13.88688252 -61.71976329 12.82116216 -57.81640625 11.62890625 C-43.87275033 7.41147603 -29.90975528 3.67707093 -15.44140625 1.7734375 C-4.12201012 0.03652106 -4.12201012 0.03652106 0 0 Z " fill="#000000" transform="translate(459.4375,175.6875)"/>
<path d="M0 0 C1.06079779 -0.00311998 2.12159558 -0.00623996 3.21453875 -0.00945449 C6.75715254 -0.01741023 10.29959389 -0.01112014 13.84220886 -0.00482178 C16.38708598 -0.00753276 18.93196231 -0.01109429 21.47683716 -0.01544189 C27.66510089 -0.02361061 33.85330114 -0.02242054 40.04156569 -0.01661661 C45.07417943 -0.01209279 50.10677958 -0.01149034 55.13939476 -0.01366425 C55.85672881 -0.01397071 56.57406286 -0.01427718 57.31313431 -0.01459293 C58.770599 -0.01523241 60.22806368 -0.01588084 61.68552836 -0.01653811 C75.34316929 -0.02223718 89.00078335 -0.0156908 102.65841987 -0.00493738 C114.3612979 0.00399201 126.06413624 0.00245032 137.76701355 -0.0067749 C151.37241557 -0.01749491 164.97779403 -0.02168187 178.58319968 -0.01555037 C180.03610495 -0.01491331 181.48901023 -0.01428457 182.94191551 -0.01366425 C184.01405691 -0.01320142 184.01405691 -0.01320142 185.10785774 -0.01272924 C190.12922104 -0.01100706 195.15056933 -0.01390722 200.17193031 -0.01862335 C206.94103873 -0.02484146 213.71006099 -0.02036946 220.47916603 -0.00883484 C222.95950191 -0.00619683 225.43984411 -0.00693863 227.92017746 -0.01136017 C231.31413791 -0.01685113 234.70786116 -0.00993831 238.10180664 0 C239.56302916 -0.00669217 239.56302916 -0.00669217 241.05377132 -0.01351953 C250.79732992 0.04155817 259.44514553 0.32438775 266.65153503 7.45709229 C272.89684215 14.51567036 272.3894107 22.16573753 272.38182068 31.12721252 C272.38627736 32.77309059 272.38627736 32.77309059 272.39082408 34.45221871 C272.3994978 38.13003912 272.4010182 41.80782692 272.4025116 45.48565674 C272.40714064 48.12215325 272.41214499 50.75864682 272.41755676 53.3951416 C272.43111663 60.5583836 272.43716087 67.72161998 272.44156742 74.88487267 C272.44433329 79.35983094 272.44857121 83.83478707 272.45307159 88.30974388 C272.46526019 100.70655462 272.47556097 113.10336364 272.47894669 125.50018024 C272.47916625 126.29299289 272.47938582 127.08580553 272.47961204 127.9026428 C272.47983032 128.69731607 272.48004859 129.49198935 272.48027349 130.31074363 C272.48071695 131.92096857 272.48116351 133.53119352 272.48161316 135.14141846 C272.48183459 135.94014003 272.48205602 136.7388616 272.48228416 137.56178685 C272.4862324 150.50457056 272.50368903 163.44729797 272.52697268 176.39005993 C272.5507002 189.68715149 272.56314914 202.98421483 272.5643146 216.2813279 C272.56523047 223.74361152 272.57096065 231.20582173 272.58913422 238.6680851 C272.60455398 245.02181968 272.60964455 251.37545817 272.60139611 257.72920791 C272.59749648 260.9688489 272.60002653 264.20825655 272.61245346 267.4478817 C272.62515407 270.96534426 272.61930587 274.48231194 272.60887146 277.99977112 C272.62095607 279.52430632 272.62095607 279.52430632 272.63328481 281.07964021 C272.58242232 288.42170744 271.32596478 294.58509593 267.67887878 301.00396729 C261.07047033 307.10403662 254.55976286 308.94775342 245.58586121 308.77496338 C225.80665534 307.85127299 206.62729826 303.18355734 187.64787292 297.83306885 C185.16778786 297.13698612 185.16778786 297.13698612 182.24137878 297.25396729 C182.24137878 296.59396729 182.24137878 295.93396729 182.24137878 295.25396729 C180.99098816 295.01806885 179.74059753 294.78217041 178.45231628 294.53912354 C172.64151418 293.24241389 167.32770987 291.02578511 161.86637878 288.69146729 C160.81635681 288.24674072 159.76633484 287.80201416 158.68449402 287.34381104 C127.01540036 273.82244529 98.6204697 256.65819517 73.24137878 233.25396729 C71.57542755 231.77399489 69.90875222 230.29483721 68.24137878 228.81646729 C60.33345203 221.67581981 53.07882954 214.28270122 46.44059753 205.94146729 C44.38545386 203.43003061 42.22920566 201.10185122 39.99137878 198.75396729 C33.73167054 191.90123405 28.80076323 184.05162831 23.65983582 176.35211182 C22.01621727 173.92091426 20.29276082 171.55519582 18.55387878 169.19146729 C13.98755423 162.6906407 10.30863902 155.64148777 6.54411316 148.65826416 C5.27773454 146.32106463 3.98815241 143.99803127 2.69450378 141.67584229 C-6.94729209 124.14632217 -13.9249946 105.3663889 -19.75862122 86.25396729 C-20.07597229 85.22312012 -20.39332336 84.19227295 -20.72029114 83.13018799 C-23.23732586 74.68069242 -25.013221 66.2606239 -26.44612122 57.56646729 C-26.658172 56.33863525 -26.87022278 55.11080322 -27.08869934 53.84576416 C-32.86311193 19.65468395 -32.86311193 19.65468395 -25.75862122 8.25396729 C-19.03491876 0.08339215 -9.88593516 -0.04496709 0 0 Z " fill="#000000" transform="translate(217.7586212158203,522.7460327148438)"/>
<path d="M0 0 C0.95696777 0.4635791 1.91393555 0.9271582 2.89990234 1.40478516 C23.98397497 11.70542656 43.83368 24.11199826 62 39 C62.54156738 39.44150391 63.08313477 39.88300781 63.64111328 40.33789062 C70.81443126 46.20790191 77.55461039 52.32801466 84 59 C86.40426806 61.42334955 88.81896678 63.8273079 91.2890625 66.18359375 C97.75014011 72.41777733 103.23190024 79.1112246 108.65625 86.24609375 C109.92988419 87.90848256 111.22503468 89.55064893 112.53125 91.1875 C147.82056636 135.85752071 175.77381089 199.9703207 173 258 C171.99513608 264.03626005 169.8592199 267.65628595 165.125 271.5 C158.92791864 275.81537649 152.87879694 276.29018505 145.57229614 276.24723816 C144.15902127 276.25085978 144.15902127 276.25085978 142.71719539 276.25455457 C139.56285771 276.26018559 136.40872309 276.25153205 133.25439453 276.24291992 C130.99018804 276.24399314 128.72598182 276.24593241 126.46177673 276.24867249 C120.30519404 276.25352478 114.14868373 276.24585451 107.99210978 276.23571944 C101.52215569 276.22691687 95.05220373 276.22869701 88.58224487 276.2290802 C77.68893206 276.22814273 66.79564755 276.21951245 55.90234375 276.20581055 C44.76399226 276.19180809 33.62566512 276.18463617 22.48730469 276.18530273 C21.80502997 276.18534269 21.12275525 276.18538265 20.41980554 276.18542381 C19.73857853 276.18546417 19.05735152 276.18550452 18.35548127 276.1855461 C4.96203311 276.18627839 -8.43140148 276.17923992 -21.82484674 276.1700995 C-25.64289425 276.16798909 -29.46093985 276.16726113 -33.27898788 276.16686058 C-79.12938004 276.15710745 -79.12938004 276.15710745 -96.96950364 275.72524321 C-98.9342016 275.67902094 -100.8991679 275.64466441 -102.86411858 275.61085033 C-108.6127118 275.43631973 -113.06279881 275.28293669 -118 272 C-118.67546875 271.56300781 -119.3509375 271.12601562 -120.046875 270.67578125 C-120.60890625 270.22589844 -121.1709375 269.77601563 -121.75 269.3125 C-122.32234375 268.87550781 -122.8946875 268.43851562 -123.484375 267.98828125 C-127.91951193 262.17002171 -127.28868846 253.88298531 -127.26742554 246.93093872 C-127.27195665 245.83676695 -127.27648776 244.74259517 -127.28115618 243.61526668 C-127.29378638 239.95977642 -127.29218069 236.30443541 -127.29052734 232.64892578 C-127.29651338 230.02360849 -127.3033191 227.39829296 -127.31088257 224.77297974 C-127.32745828 218.3885484 -127.33299053 212.00415401 -127.33410732 205.61970295 C-127.33505928 200.42832646 -127.3391769 195.2369621 -127.34550858 190.04558945 C-127.36311038 175.31304749 -127.37234892 160.58053461 -127.37084763 145.84798206 C-127.37076772 145.05461771 -127.3706878 144.26125335 -127.37060547 143.44384766 C-127.37052371 142.64951001 -127.37044195 141.85517237 -127.37035771 141.03676389 C-127.36954475 128.16265717 -127.3886876 115.28866743 -127.4168822 102.41459455 C-127.44563274 89.18183945 -127.45942135 75.94914137 -127.45769465 62.71635425 C-127.45703158 55.29261447 -127.4624878 47.86899738 -127.48405075 40.4452858 C-127.50420081 33.46354604 -127.50356673 26.48206922 -127.48901749 19.50031662 C-127.48692671 16.94054028 -127.49164617 14.38074778 -127.5037384 11.82099915 C-127.51919771 8.32137181 -127.50987698 4.82263698 -127.49447632 1.32302856 C-127.50476344 0.31483979 -127.51505057 -0.69334898 -127.52564943 -1.73208892 C-127.45466817 -9.05222589 -126.24529346 -16.23513406 -121.32297647 -21.94551551 C-96.5238071 -45.51658166 -25.18608305 -12.32809762 0 0 Z " fill="#000000" transform="translate(661,206)"/>
<path d="M0 0 C4.72887233 4.38881859 7.65836623 8.70262523 8.18557608 15.33434176 C8.26113646 18.23520203 8.27124877 21.12998585 8.26069641 24.03182983 C8.26452196 25.14612165 8.26834751 26.26041347 8.27228898 27.4084717 C8.28261141 31.14394443 8.27862819 34.87926322 8.2746582 38.61474609 C8.2790051 41.29227712 8.28412368 43.96979684 8.29014587 46.64732361 C8.30288984 53.16638528 8.30468693 59.68540575 8.30234561 66.20447777 C8.30056189 71.50413756 8.30231326 76.80378485 8.30657005 82.10344315 C8.30716524 82.85799404 8.30776043 83.61254494 8.30837366 84.38996101 C8.30958542 85.92288696 8.31079956 87.45581291 8.31201603 88.98873885 C8.32289049 103.36209339 8.32072957 117.73542447 8.31463119 132.10878034 C8.30946258 145.25270551 8.32071613 158.39655656 8.33972941 171.54046707 C8.35911014 185.04209083 8.36736336 198.54367953 8.36360615 212.04531729 C8.36169441 219.62325773 8.36417906 227.20113509 8.37832069 234.77906418 C8.3902385 241.23055001 8.39163496 247.68193393 8.37953053 254.13342117 C8.37364447 257.42356359 8.37416438 260.71348131 8.38453293 264.00361824 C8.39497327 267.57398607 8.38692081 271.14385313 8.3742218 274.71420288 C8.38159609 275.74903632 8.38897037 276.78386975 8.39656812 277.85006177 C8.34227579 285.1065381 7.16277864 290.47547184 3.3125 296.75 C-3.94005257 303.80653764 -12.51086421 304.14910544 -22.10760498 304.14044189 C-23.13458221 304.14341302 -24.16155943 304.14638414 -25.21965718 304.1494453 C-28.66565208 304.15812646 -32.11161222 304.15964006 -35.55761719 304.16113281 C-38.02647984 304.16576137 -40.49534178 304.17078609 -42.96420288 304.17617798 C-49.6750422 304.1892998 -56.38586792 304.19578329 -63.09671688 304.20018864 C-67.28908095 304.20295383 -71.48144272 304.20719168 -75.67380524 304.21169281 C-87.28737111 304.22388302 -98.90093516 304.23418297 -110.51450729 304.2375679 C-111.62885485 304.23789725 -111.62885485 304.23789725 -112.76571448 304.23823325 C-113.51036174 304.23845153 -114.255009 304.23866981 -115.02222133 304.2388947 C-116.53109026 304.23933816 -118.03995919 304.23978473 -119.54882812 304.24023438 C-120.67149806 304.24056652 -120.67149806 304.24056652 -121.81684819 304.24090537 C-133.94168164 304.24485258 -146.06645496 304.26230532 -158.1912652 304.2855939 C-170.64759603 304.30932561 -183.10389672 304.32177057 -195.56025052 304.32293582 C-202.55082809 304.32385153 -209.5413273 304.32957772 -216.53188324 304.34775543 C-223.10806599 304.36479575 -229.68412644 304.36639545 -236.26033401 304.35761642 C-238.67217278 304.35684564 -241.08401951 304.36119424 -243.49583817 304.37107468 C-246.79222252 304.38378552 -250.08807958 304.3779216 -253.38446045 304.36749268 C-254.81079965 304.37957728 -254.81079965 304.37957728 -256.26595378 304.39190602 C-263.12957622 304.34123653 -269.7971558 303.50773611 -275.33984375 299.16796875 C-284.22179261 288.15782677 -282.39795312 276.45772084 -281.12280273 263.03222656 C-277.41731189 229.00666763 -267.45042472 196.27478535 -253.75 165 C-253.29282593 163.95126709 -253.29282593 163.95126709 -252.82641602 162.88134766 C-250.93814625 158.69300733 -248.74073136 154.84694997 -246.25878906 150.98291016 C-245.0451321 149.07109443 -243.90324592 147.13472032 -242.78125 145.16796875 C-231.46471218 125.3770365 -218.5068273 106.64376269 -202.79467773 90.08447266 C-200.07632606 87.27845113 -200.07632606 87.27845113 -198 84 C-197.34 84 -196.68 84 -196 84 C-195.73388916 83.40558105 -195.46777832 82.81116211 -195.19360352 82.19873047 C-193.96978403 79.94433934 -192.76315249 78.56888026 -190.90234375 76.8203125 C-190.27457031 76.22831055 -189.64679688 75.63630859 -189 75.02636719 C-188.319375 74.39891602 -187.63875 73.77146484 -186.9375 73.125 C-186.22722656 72.46661133 -185.51695312 71.80822266 -184.78515625 71.12988281 C-172.28562527 59.65553266 -159.21203702 49.26718193 -145 40 C-144.36803711 39.58298828 -143.73607422 39.16597656 -143.08496094 38.73632812 C-124.77821469 26.70698487 -105.56746517 17.48161475 -85 10 C-84.31808594 9.74524902 -83.63617187 9.49049805 -82.93359375 9.22802734 C-64.12582737 2.22502941 -17.85719421 -14.46390315 0 0 Z " fill="#000000" transform="translate(818,524)"/>
<path d="" fill="#171716" transform="translate(0,0)"/>
<path d="" fill="#171616" transform="translate(0,0)"/>
<path d="" fill="#161717" transform="translate(0,0)"/>
<path d="M0 0 C2 1 2 1 2 1 Z " fill="#161214" transform="translate(664,568)"/>
<path d="M0 0 C2 1 2 1 2 1 Z " fill="#121215" transform="translate(689,552)"/>
<path d="M0 0 C2 1 2 1 2 1 Z " fill="#131012" transform="translate(704,544)"/>
<path d="M0 0 C2 1 2 1 2 1 Z " fill="#1C1D1C" transform="translate(262,522)"/>
<path d="M0 0 C2 1 2 1 2 1 Z " fill="#1C1A1A" transform="translate(797,483)"/>
<path d="" fill="#131413" transform="translate(0,0)"/>
<path d="" fill="#131312" transform="translate(0,0)"/>
<path d="" fill="#141513" transform="translate(0,0)"/>
<path d="M0 0 C2 1 2 1 2 1 Z " fill="#111112" transform="translate(630,192)"/>
<path d="" fill="#292929" transform="translate(0,0)"/>
<path d="" fill="#181615" transform="translate(0,0)"/>
<path d="" fill="#1D1D1E" transform="translate(0,0)"/>
<path d="" fill="#171715" transform="translate(0,0)"/>
<path d="" fill="#171514" transform="translate(0,0)"/>
<path d="" fill="#161314" transform="translate(0,0)"/>
<path d="" fill="#141414" transform="translate(0,0)"/>
<path d="" fill="#141212" transform="translate(0,0)"/>
<path d="" fill="#141211" transform="translate(0,0)"/>
<path d="" fill="#131112" transform="translate(0,0)"/>
<path d="" fill="#121210" transform="translate(0,0)"/>
<path d="" fill="#131211" transform="translate(0,0)"/>
<path d="" fill="#131211" transform="translate(0,0)"/>
<path d="" fill="#141110" transform="translate(0,0)"/>
<path d="" fill="#141312" transform="translate(0,0)"/>
<path d="" fill="#151312" transform="translate(0,0)"/>
<path d="" fill="#131213" transform="translate(0,0)"/>
<path d="" fill="#161614" transform="translate(0,0)"/>
<path d="" fill="#151414" transform="translate(0,0)"/>
<path d="" fill="#18191A" transform="translate(0,0)"/>
<path d="" fill="#131212" transform="translate(0,0)"/>
<path d="" fill="#121212" transform="translate(0,0)"/>
<path d="" fill="#141112" transform="translate(0,0)"/>
<path d="" fill="#0F0F11" transform="translate(0,0)"/>
<path d="" fill="#181818" transform="translate(0,0)"/>
<path d="" fill="#111211" transform="translate(0,0)"/>
<path d="" fill="#181716" transform="translate(0,0)"/>
<path d="" fill="#0F1313" transform="translate(0,0)"/>
<path d="" fill="#181615" transform="translate(0,0)"/>
<path d="" fill="#171515" transform="translate(0,0)"/>
<path d="" fill="#121212" transform="translate(0,0)"/>
<path d="" fill="#181516" transform="translate(0,0)"/>
<path d="" fill="#111110" transform="translate(0,0)"/>
<path d="" fill="#151212" transform="translate(0,0)"/>
<path d="" fill="#161717" transform="translate(0,0)"/>
<path d="" fill="#181618" transform="translate(0,0)"/>
<path d="" fill="#191719" transform="translate(0,0)"/>
<path d="" fill="#191716" transform="translate(0,0)"/>
<path d="" fill="#141515" transform="translate(0,0)"/>
<path d="" fill="#131112" transform="translate(0,0)"/>
<path d="" fill="#191818" transform="translate(0,0)"/>
<path d="" fill="#181919" transform="translate(0,0)"/>
<path d="" fill="#191918" transform="translate(0,0)"/>
<path d="" fill="#161314" transform="translate(0,0)"/>
<path d="" fill="#141215" transform="translate(0,0)"/>
<path d="" fill="#141512" transform="translate(0,0)"/>
<path d="" fill="#131412" transform="translate(0,0)"/>
<path d="" fill="#1B1B1C" transform="translate(0,0)"/>
<path d="" fill="#12120F" transform="translate(0,0)"/>
<path d="" fill="#1C1D1B" transform="translate(0,0)"/>
<path d="" fill="#121113" transform="translate(0,0)"/>
<path d="" fill="#121413" transform="translate(0,0)"/>
<path d="" fill="#131415" transform="translate(0,0)"/>
<path d="" fill="#131212" transform="translate(0,0)"/>
<path d="" fill="#232321" transform="translate(0,0)"/>
<path d="" fill="#181818" transform="translate(0,0)"/>
<path d="" fill="#1D221E" transform="translate(0,0)"/>
<path d="" fill="#1F1F1E" transform="translate(0,0)"/>
<path d="" fill="#1E1F1F" transform="translate(0,0)"/>
<path d="" fill="#201E1F" transform="translate(0,0)"/>
<path d="" fill="#1F1E1D" transform="translate(0,0)"/>
<path d="" fill="#1D1E1C" transform="translate(0,0)"/>
<path d="" fill="#1B1D1B" transform="translate(0,0)"/>
<path d="" fill="#1D1C1C" transform="translate(0,0)"/>
<path d="" fill="#1C1B1B" transform="translate(0,0)"/>
<path d="" fill="#1D1C1D" transform="translate(0,0)"/>
<path d="" fill="#19191A" transform="translate(0,0)"/>
<path d="" fill="#1E1C1C" transform="translate(0,0)"/>
<path d="" fill="#1C1C1A" transform="translate(0,0)"/>
<path d="" fill="#1D1D1B" transform="translate(0,0)"/>
<path d="" fill="#1A1A1A" transform="translate(0,0)"/>
<path d="" fill="#1A1A18" transform="translate(0,0)"/>
<path d="" fill="#201D1D" transform="translate(0,0)"/>
<path d="" fill="#211E1F" transform="translate(0,0)"/>
<path d="" fill="#1A1B18" transform="translate(0,0)"/>
<path d="" fill="#131312" transform="translate(0,0)"/>
<path d="" fill="#111510" transform="translate(0,0)"/>
<path d="" fill="#121212" transform="translate(0,0)"/>
<path d="" fill="#121212" transform="translate(0,0)"/>
<path d="" fill="#111111" transform="translate(0,0)"/>
<path d="" fill="#111110" transform="translate(0,0)"/>
<path d="" fill="#111210" transform="translate(0,0)"/>
<path d="" fill="#161616" transform="translate(0,0)"/>
<path d="" fill="#171417" transform="translate(0,0)"/>
<path d="" fill="#101010" transform="translate(0,0)"/>
<path d="" fill="#161418" transform="translate(0,0)"/>
<path d="" fill="#0F0F0C" transform="translate(0,0)"/>
<path d="" fill="#151615" transform="translate(0,0)"/>
<path d="" fill="#0E0E0E" transform="translate(0,0)"/>
<path d="" fill="#161717" transform="translate(0,0)"/>
<path d="" fill="#0F0F0E" transform="translate(0,0)"/>
<path d="" fill="#0F0E0C" transform="translate(0,0)"/>
<path d="" fill="#141515" transform="translate(0,0)"/>
<path d="" fill="#10100E" transform="translate(0,0)"/>
<path d="" fill="#0E100E" transform="translate(0,0)"/>
<path d="" fill="#3A3B3A" transform="translate(0,0)"/>
<path d="" fill="#2A2A2B" transform="translate(0,0)"/>
<path d="" fill="#0E0F0F" transform="translate(0,0)"/>
<path d="" fill="#100D0E" transform="translate(0,0)"/>
<path d="" fill="#141514" transform="translate(0,0)"/>
<path d="" fill="#0F100D" transform="translate(0,0)"/>
<path d="" fill="#0E0D0E" transform="translate(0,0)"/>
<path d="" fill="#121314" transform="translate(0,0)"/>
<path d="" fill="#0E0F0D" transform="translate(0,0)"/>
<path d="" fill="#131010" transform="translate(0,0)"/>
<path d="" fill="#151311" transform="translate(0,0)"/>
<path d="" fill="#141313" transform="translate(0,0)"/>
<path d="" fill="#0F1211" transform="translate(0,0)"/>
<path d="" fill="#10100F" transform="translate(0,0)"/>
<path d="" fill="#151717" transform="translate(0,0)"/>
<path d="" fill="#0F0F0F" transform="translate(0,0)"/>
<path d="" fill="#10100E" transform="translate(0,0)"/>
<path d="" fill="#161315" transform="translate(0,0)"/>
<path d="" fill="#11100F" transform="translate(0,0)"/>
<path d="" fill="#151415" transform="translate(0,0)"/>
<path d="" fill="#11110F" transform="translate(0,0)"/>
<path d="" fill="#111210" transform="translate(0,0)"/>
<path d="" fill="#121312" transform="translate(0,0)"/>
<path d="" fill="#110F0F" transform="translate(0,0)"/>
<path d="" fill="#11120E" transform="translate(0,0)"/>
<path d="" fill="#161412" transform="translate(0,0)"/>
<path d="" fill="#131312" transform="translate(0,0)"/>
<path d="" fill="#12110E" transform="translate(0,0)"/>
<path d="" fill="#131311" transform="translate(0,0)"/>
<path d="" fill="#141310" transform="translate(0,0)"/>
<path d="" fill="#131514" transform="translate(0,0)"/>
<path d="" fill="#12130F" transform="translate(0,0)"/>
<path d="" fill="#121412" transform="translate(0,0)"/>
<path d="" fill="#181618" transform="translate(0,0)"/>
<path d="" fill="#171816" transform="translate(0,0)"/>
<path d="" fill="#181616" transform="translate(0,0)"/>
<path d="" fill="#181817" transform="translate(0,0)"/>
<path d="" fill="#191718" transform="translate(0,0)"/>
<path d="" fill="#191A1A" transform="translate(0,0)"/>
<path d="" fill="#191718" transform="translate(0,0)"/>
<path d="" fill="#1C1918" transform="translate(0,0)"/>
<path d="" fill="#313031" transform="translate(0,0)"/>
</svg>
