<svg xmlns="http://www.w3.org/2000/svg" version="1.1" viewBox="83.1232 373.96479999999997 847.872 272.384" style="max-height: 500px" width="847.872" height="272.384">
<path transform="translate(0,0)" fill="#FEFEFE" d="M0 0 C337.92 0 675.84 0 1024 0 C1024 337.92 1024 675.84 1024 1024 C686.08 1024 348.16 1024 0 1024 C0 686.08 0 348.16 0 0 Z"/>
<path transform="translate(337.20079040527344,518.9033508300781)" fill="#090909" d="M0 0 C3.00039121 3.49640629 2.36312957 7.45080144 2.33265686 11.90475464 C2.34558022 13.41492157 2.34558022 13.41492157 2.35876465 14.95559692 C2.38151307 18.29193657 2.37466838 21.62744215 2.36561584 24.96383667 C2.37084811 27.27927908 2.37712312 29.59471936 2.38439941 31.91015625 C2.39482053 36.76750706 2.39021836 41.62456525 2.37562561 46.48190308 C2.35845052 52.70883777 2.38190931 58.93484867 2.41711521 65.16168022 C2.43907144 69.94523238 2.43765169 74.72856301 2.4293499 79.51214981 C2.42852912 81.80788307 2.43541651 84.10363239 2.45012093 86.3993187 C2.46752973 89.61004173 2.45305251 92.81909881 2.43031311 96.02975464 C2.44785141 97.45443558 2.44785141 97.45443558 2.46574402 98.90789795 C2.40434912 103.16591388 2.16299167 105.51206828 -0.1235199 109.18638611 C-4.48161305 111.89173956 -8.02840647 111.79114762 -13.06822205 111.72775269 C-14.0573912 111.73490799 -15.04656036 111.74206329 -16.06570435 111.74943542 C-19.33125665 111.76632703 -22.59543721 111.74691762 -25.86094666 111.72555542 C-28.13108433 111.726384 -30.40122194 111.72884298 -32.6713562 111.73286438 C-37.42687559 111.73572263 -42.18192405 111.72101671 -46.93736267 111.693573 C-53.03646869 111.65947135 -59.13473362 111.66551494 -65.23388004 111.68423557 C-69.92046128 111.69479723 -74.60684636 111.68587554 -79.29340935 111.67085075 C-81.54250443 111.6656637 -83.79161995 111.66615706 -86.04071236 111.67239571 C-89.18184191 111.67783842 -92.32176156 111.65750273 -95.4627533 111.63009644 C-96.3942923 111.63662231 -97.3258313 111.64314819 -98.28559875 111.64987183 C-104.58758743 111.55624914 -104.58758743 111.55624914 -107.74691772 109.18830872 C-111.65173397 103.57052231 -110.67824944 97.46330504 -109.51719666 90.95993042 C-103.5847788 61.0269992 -87.42075274 34.61302843 -61.93516541 17.44821167 C-47.39565549 8.07061242 -17.69938158 -7.26500398 0 0 Z"/>
<path transform="translate(263.40283203125,399.09130859375)" fill="#0A0A0A" d="M0 0 C13.00633353 4.55062732 25.15267001 10.8949466 35.59716797 19.90869141 C36.91394531 21.02050781 36.91394531 21.02050781 38.25732422 22.15478516 C60.8687714 41.83322411 74.02869124 68.14246025 76.89404297 98.00244141 C76.59716797 100.90869141 76.59716797 100.90869141 75.1872406 103.0579834 C71.24674306 105.87362272 67.59113907 105.46740008 62.85913086 105.42626953 C61.87171402 105.43327881 60.88429718 105.44028809 59.86695862 105.44750977 C56.60096156 105.46512339 53.33583019 105.45345374 50.06982422 105.43994141 C47.8006524 105.44263556 45.53148171 105.44651733 43.26231384 105.45153809 C38.50508642 105.4574379 33.74815932 105.44885513 28.9909668 105.43017578 C22.89307495 105.40739931 16.7958878 105.42049854 10.69802189 105.44446564 C6.01141554 105.45892142 1.32497617 105.45431832 -3.36163521 105.44395447 C-5.60991054 105.44128592 -7.85820103 105.44456141 -10.10645866 105.45387268 C-13.24984745 105.46403282 -16.39209648 105.44854306 -19.53540039 105.42626953 C-20.92967255 105.43841492 -20.92967255 105.43841492 -22.35211182 105.45080566 C-26.56502315 105.39550872 -28.81223164 105.27751975 -32.45704651 103.00134277 C-36.20220791 98.97350052 -35.56421327 95.00098962 -35.57983398 89.76489258 C-35.58640518 88.81678207 -35.59297638 87.86867157 -35.5997467 86.89183044 C-35.61950466 83.74510627 -35.63114752 80.59842986 -35.64111328 77.45166016 C-35.64518881 76.37854395 -35.64926434 75.30542774 -35.65346336 74.19979286 C-35.6743342 68.52064836 -35.68863185 62.8415281 -35.69799805 57.16235352 C-35.70906798 51.29091956 -35.74347198 45.41986403 -35.78316975 39.54856396 C-35.80929106 35.03871446 -35.81768588 30.52895575 -35.82127953 26.01903725 C-35.82615664 23.85446935 -35.83780245 21.68990581 -35.85631752 19.52541161 C-35.88061444 16.49685897 -35.87976111 13.4692937 -35.87280273 10.44067383 C-35.88561279 9.54541992 -35.89842285 8.65016602 -35.91162109 7.7277832 C-35.87691222 3.58615141 -35.74841196 1.45912445 -33.49845886 -2.1245575 C-25.93847169 -9.21962464 -8.85421096 -2.80066452 0 0 Z"/>
<path transform="translate(209,395)" fill="#09090A" d="M0 0 C3.15042336 2.85561026 4.25070647 5.10246342 4.50120544 9.25012207 C4.52186683 10.96414957 4.52051466 12.67852926 4.50170898 14.39257812 C4.50981346 15.80077065 4.50981346 15.80077065 4.51808167 17.2374115 C4.53057258 20.33567993 4.51407515 23.43301981 4.49609375 26.53125 C4.49624873 28.68689014 4.49773753 30.84253057 4.50050354 32.99816895 C4.5018877 37.51404145 4.48932632 42.02959642 4.46655273 46.54541016 C4.43816833 52.33267476 4.44090533 58.11941175 4.45364285 63.90671539 C4.46059924 68.35740664 4.45281113 72.80797604 4.44038582 77.25865173 C4.43587096 79.3924869 4.43553482 81.52633515 4.43945122 83.66017151 C4.44236299 86.64286088 4.42585762 89.62482426 4.40405273 92.60742188 C4.40855438 93.48861191 4.41305603 94.36980194 4.41769409 95.2776947 C4.36043021 99.99438149 4.10212875 103.19669794 1 107 C-2.08367865 109.05578577 -2.72902372 109.25176289 -6.21289062 109.26742554 C-7.07092285 109.27595551 -7.92895508 109.28448547 -8.81298828 109.29327393 C-9.75126465 109.29236755 -10.68954102 109.29146118 -11.65625 109.29052734 C-13.1419751 109.30060318 -13.1419751 109.30060318 -14.65771484 109.31088257 C-17.93852728 109.3299128 -21.21913578 109.33378904 -24.5 109.3359375 C-26.77539149 109.34236095 -29.05078215 109.34908896 -31.32617188 109.35610962 C-36.09767574 109.36809428 -40.86910714 109.37178912 -45.640625 109.37060547 C-51.76447301 109.37040199 -57.88785844 109.39772893 -64.01159668 109.43214989 C-68.71095936 109.45434857 -73.41020938 109.4584452 -78.10961914 109.45738602 C-80.36793617 109.45975164 -82.62625587 109.46862882 -84.88452148 109.48405075 C-88.037931 109.50357225 -91.19032533 109.49792746 -94.34375 109.48583984 C-95.75116455 109.50269836 -95.75116455 109.50269836 -97.18701172 109.51989746 C-103.48242347 109.45834725 -103.48242347 109.45834725 -106.08569336 107.15298462 C-110.86389553 95.90140301 -103.31547937 77.25174243 -99.08007812 66.71044922 C-87.02032886 39.08710462 -65.15441634 17.33937587 -37.15966797 6.10620117 C-29.97620533 3.36746055 -22.83028792 1.30251725 -15.25 0 C-14.52393555 -0.12479736 -13.79787109 -0.24959473 -13.04980469 -0.37817383 C-8.48267382 -1.05196922 -4.47032752 -1.20936397 0 0 Z"/>
<path transform="translate(116.683837890625,519.368896484375)" fill="#090909" d="M0 0 C0.96966202 -0.0071553 1.93932404 -0.01431061 2.93836975 -0.02168274 C6.13900055 -0.03857211 9.33823133 -0.01916644 12.53881836 0.00219727 C14.76411556 0.00136866 16.9894127 -0.00109039 19.21470642 -0.00511169 C23.87607264 -0.00796978 28.53695838 0.0067344 33.19824219 0.03417969 C39.17628529 0.06828176 45.15347028 0.0622375 51.1315546 0.04351711 C55.72549099 0.03295495 60.31922729 0.04187758 64.91314507 0.05690193 C67.11758264 0.0620886 69.32204106 0.06159609 71.52647591 0.05535698 C74.60534837 0.04991363 77.68298685 0.0702518 80.76171875 0.09765625 C82.13097504 0.08786743 82.13097504 0.08786743 83.52789307 0.07788086 C89.70571564 0.17149826 89.70571564 0.17149826 92.85081482 2.53944397 C95.86530084 6.84236827 95.48518197 10.76786388 95.5090332 15.86669922 C95.52129944 17.30349533 95.52129944 17.30349533 95.53381348 18.76931763 C95.55868621 21.94850026 95.57518767 25.12763821 95.58959961 28.30688477 C95.59492329 29.39103354 95.60024696 30.4751823 95.60573196 31.59218407 C95.63247078 37.32967803 95.65184399 43.06715016 95.66625977 48.8046875 C95.68291599 54.7367397 95.72770028 60.66823723 95.77863121 66.60007954 C95.81225346 71.15625156 95.82383169 75.71229108 95.82948685 80.26857567 C95.83621241 82.4554894 95.85146813 84.64239402 95.87537766 86.82918739 C95.90692571 89.88902903 95.90708133 92.94736328 95.8996582 96.00732422 C95.91606354 96.91192886 95.93246887 97.81653351 95.94937134 98.74855042 C95.90541216 103.17161032 95.74515715 105.05969304 93.0140686 108.69743347 C89.06509151 111.52778313 85.92864776 111.29714395 81.31616211 110.63110352 C59.98590359 106.70703746 40.80295681 98.9686296 24.31616211 84.63110352 C23.47311523 83.92083008 22.63006836 83.21055664 21.76147461 82.47875977 C1.34297274 64.82203095 -11.76140453 38.39444062 -14.68383789 11.63110352 C-14.80243164 10.63079102 -14.92102539 9.63047852 -15.04321289 8.59985352 C-14.68383789 5.63110352 -14.68383789 5.63110352 -12.76661682 2.98500061 C-8.48171099 -0.28679656 -5.25464539 -0.0674544 0 0 Z"/>
<path transform="translate(385,454)" fill="#0A0A0A" d="M0 0 C7.92 0 15.84 0 24 0 C28.5 10.125 28.5 10.125 30.29003906 14.88696289 C30.69015198 15.94738297 31.09026489 17.00780304 31.50250244 18.10035706 C32.12774811 19.76964516 32.12774811 19.76964516 32.765625 21.47265625 C33.20388611 22.6363121 33.64214722 23.79996796 34.09368896 24.99888611 C35.48162802 28.68582188 36.86586911 32.37413313 38.25 36.0625 C39.19476712 38.5750751 40.14034149 41.08734612 41.0859375 43.59960938 C43.39342785 49.73202196 45.69789036 55.86556561 48 62 C49.97376014 59.03935979 51.01396385 56.49986827 52.21484375 53.1640625 C52.64885498 51.9673291 53.08286621 50.7705957 53.5300293 49.53759766 C53.75943207 48.89977356 53.98883484 48.26194946 54.22518921 47.60479736 C55.43820674 44.23333517 56.66447646 40.86670456 57.890625 37.5 C58.14349777 36.80500397 58.39637054 36.11000793 58.65690613 35.39395142 C61.43389891 27.7790853 64.30362173 20.19990897 67.1875 12.625 C67.55317581 11.66391327 67.55317581 11.66391327 67.92623901 10.68341064 C69.28183699 7.12138205 70.6404757 3.56053366 72 0 C80.25 0 88.5 0 97 0 C97 33.33 97 66.66 97 101 C91.39 101 85.78 101 80 101 C80 75.92 80 50.84 80 25 C72.80181548 44.37083658 72.80181548 44.37083658 65.60961914 63.74389648 C64.71001637 66.16137678 63.81020961 68.57878118 62.91015625 70.99609375 C62.67614609 71.62806168 62.44213593 72.2600296 62.20103455 72.91114807 C61.51426243 74.7651997 60.82373888 76.61786042 60.13305664 78.47045898 C59.5501461 80.03932106 59.5501461 80.03932106 58.95545959 81.63987732 C58 84 58 84 57 85 C55.65732587 85.08631874 54.31025678 85.10706473 52.96484375 85.09765625 C52.15595703 85.09443359 51.34707031 85.09121094 50.51367188 85.08789062 C49.66353516 85.07951172 48.81339844 85.07113281 47.9375 85.0625 C47.08349609 85.05798828 46.22949219 85.05347656 45.34960938 85.04882812 C43.23304337 85.03700373 41.11651315 85.01906769 39 85 C38.65294258 84.0494574 38.65294258 84.0494574 38.2988739 83.07971191 C35.88203794 76.46054153 33.46471689 69.84154844 31.04711914 63.22265625 C30.14595398 60.75525343 29.24491087 58.28780604 28.34399414 55.8203125 C27.04605993 52.26550648 25.74768117 48.71086311 24.44921875 45.15625 C24.0491008 44.06010376 23.64898285 42.96395752 23.23674011 41.83459473 C22.85657242 40.79411987 22.47640472 39.75364502 22.0847168 38.68164062 C21.75384567 37.7756311 21.42297455 36.86962158 21.08207703 35.93615723 C19.73655129 32.28514622 18.36624116 28.64330975 17 25 C16.67 50.08 16.34 75.16 16 101 C10.72 101 5.44 101 0 101 C0 67.67 0 34.34 0 0 Z"/>
<path transform="translate(737,484)" fill="#0A0A0A" d="M0 0 C3.14939866 2.19088603 4.86634076 3.79951115 7 7 C7.33 4.03 7.66 1.06 8 -2 C13.28 -2 18.56 -2 24 -2 C24 31.99 24 65.98 24 101 C18.72 101 13.44 101 8 101 C7.67 88.79 7.34 76.58 7 64 C5.02 65.65 3.04 67.3 1 69 C-6.40679068 73.16930637 -13.49713064 74.2471092 -21.7578125 72.375 C-31.34400333 69.38432208 -37.72787887 63.97544744 -42.4375 55.125 C-47.5705162 43.82098925 -48.61865314 31.93459641 -45 20 C-41.17265634 10.15466204 -36.21904183 3.57257066 -26.875 -1.4375 C-18.29752592 -4.8863284 -8.14344952 -4.14575612 0 0 Z"/>
<path transform="translate(630,451)" fill="#090909" d="M0 0 C5.28 0 10.56 0 16 0 C16 34.32 16 68.64 16 104 C11.05 104 6.1 104 1 104 C0.505 100.04 0.505 100.04 0 96 C-0.43570313 96.39832031 -0.87140625 96.79664063 -1.3203125 97.20703125 C-8.73698209 103.80497757 -15.62700184 106.46572609 -25.58203125 106.265625 C-34.90239774 105.24173983 -41.93958728 99.87851462 -48 93 C-54.75261399 82.76828747 -55.98421808 72.03206608 -55 60 C-52.83004813 49.52011883 -48.0221396 40.30984954 -39.0546875 34.21875 C-31.2311237 29.57815702 -23.18864538 28.52106341 -14.25390625 30.65625 C-7.52873239 33.03104503 -5.62513346 35.37486654 0 41 C0 27.47 0 13.94 0 0 Z"/>
<path transform="translate(551.23828125,486.40234375)" fill="#0B0A0B" d="M0 0 C7.86183431 6.05553716 12.2312555 15.95573778 13.76171875 25.59765625 C13.76171875 29.22765625 13.76171875 32.85765625 13.76171875 36.59765625 C-3.72828125 36.59765625 -21.21828125 36.59765625 -39.23828125 36.59765625 C-36.89245528 46.51214248 -36.89245528 46.51214248 -30.2265625 52.78125 C-23.92912075 55.87116624 -18.7920659 56.59889706 -12.05078125 54.34765625 C-9.42351872 53.38450502 -8.33684666 52.71966793 -6.546875 50.50390625 C-3.06377334 47.62784261 0.14489646 48.15936872 4.51171875 48.34765625 C5.30449219 48.36570312 6.09726562 48.38375 6.9140625 48.40234375 C8.86380223 48.44932543 10.81291753 48.52106581 12.76171875 48.59765625 C10.58829089 56.33415853 5.79559751 62.20559877 -1.13671875 66.31640625 C-11.70503871 71.18973341 -22.67255896 72.52590641 -33.890625 68.640625 C-43.40806974 64.41240912 -49.35593274 58.29002777 -53.44140625 48.74609375 C-57.2853116 38.38262345 -57.12212022 22.89848919 -52.55078125 12.8828125 C-47.38105623 3.88195197 -41.36679071 -1.61884156 -31.37890625 -5.0390625 C-20.43821601 -6.89578548 -9.49817076 -5.95086091 0 0 Z"/>
<path transform="translate(903.8984375,483.69140625)" fill="#0B0B0B" d="M0 0 C9.02759239 5.62127035 13.81658388 12.77255848 16.9140625 22.98828125 C18.18497111 28.65441547 18.1015625 33.27652776 18.1015625 39.30859375 C0.6115625 39.30859375 -16.8784375 39.30859375 -34.8984375 39.30859375 C-31.6512365 49.96076107 -31.6512365 49.96076107 -24.15234375 56.30078125 C-18.73462615 58.76437115 -13.63083268 58.74648552 -7.8984375 57.30859375 C-4.73905528 55.81341286 -2.37037821 53.78053446 0.1015625 51.30859375 C3.0109183 51.16341631 5.8215085 51.12228579 8.7265625 51.18359375 C9.52835938 51.19261719 10.33015625 51.20164062 11.15625 51.2109375 C13.13814773 51.23453152 15.11989231 51.2704031 17.1015625 51.30859375 C13.26697542 60.47104461 8.55998998 66.40184342 -0.5234375 70.68359375 C-10.66334332 74.71201134 -21.43448777 74.58051423 -31.49609375 70.4375 C-40.68006005 66.1217825 -45.59912268 60.08231138 -49.13671875 50.73828125 C-52.7696072 39.15029861 -52.35577263 24.94755256 -46.76171875 14.10546875 C-37.35768087 -1.91402796 -17.00656989 -8.44484312 0 0 Z"/>
<path transform="translate(777,482)" fill="#080808" d="M0 0 C5.28 0 10.56 0 16 0 C16.0093457 1.41216797 16.01869141 2.82433594 16.02832031 4.27929688 C16.06833663 9.54263292 16.13412852 14.80539163 16.20751953 20.06835938 C16.2356616 22.34172116 16.25690961 24.61517955 16.27099609 26.88867188 C16.29251882 30.1658653 16.33921885 33.44190531 16.390625 36.71875 C16.39185364 37.72740112 16.39308228 38.73605225 16.39434814 39.77526855 C16.5194478 45.86822251 17.23632985 51.02218575 21 56 C25.75839613 58.92824377 30.48114542 59.91455304 36 59 C40.98559733 57.55608383 43.32282075 56.11187232 46.078125 51.58789062 C48.575974 46.432912 48.60234504 41.58359657 48.609375 35.9375 C48.62591125 34.90560547 48.64244751 33.87371094 48.65948486 32.81054688 C48.70776261 29.54030281 48.72929134 26.2705231 48.75 23 C48.77817651 20.77211231 48.80810628 18.54424606 48.83984375 16.31640625 C48.9135165 10.87764242 48.96321482 5.43913333 49 0 C54.28 0 59.56 0 65 0 C65 24.42 65 48.84 65 74 C59.72 74 54.44 74 49 74 C48.505 69.545 48.505 69.545 48 65 C47.48050781 65.48210937 46.96101562 65.96421875 46.42578125 66.4609375 C45.37970703 67.40839844 45.37970703 67.40839844 44.3125 68.375 C43.62800781 69.00148438 42.94351563 69.62796875 42.23828125 70.2734375 C35.37322082 75.56899895 26.26794941 74.79655906 18 74 C11.40011267 72.45970133 6.60656166 67.58788794 3 62 C-0.26054802 55.05317647 -0.39623455 49.0084938 -0.29296875 41.40625 C-0.28872391 40.21898315 -0.28447906 39.03171631 -0.28010559 37.80847168 C-0.26339339 34.0387446 -0.22575381 30.26956388 -0.1875 26.5 C-0.17244358 23.93490359 -0.15875685 21.36979874 -0.14648438 18.8046875 C-0.1135141 12.53624974 -0.06178237 6.26821732 0 0 Z"/>
<path transform="translate(618.6875,497.0625)" fill="#FCFCFC" d="M0 0 C6.37733991 3.73014221 9.84276845 8.59999515 11.83984375 15.69140625 C13.46355804 23.40740393 11.94062304 29.98890177 8.3125 36.9375 C3.96660005 42.11756558 -0.79182713 44.65267972 -7.5 45.3125 C-13.35458593 45.14649095 -17.90761281 42.71738719 -22 38.625 C-27.12455107 30.46367792 -27.60858168 23.58792391 -26.6875 13.9375 C-25.07175477 7.68610478 -20.97321006 3.48174642 -15.6875 -0.0625 C-10.34145956 -1.84451348 -5.38465192 -1.55150988 0 0 Z"/>
<path transform="translate(734.1875,497)" fill="#FDFDFD" d="M0 0 C5.02852103 3.57583718 8.82071304 7.67145671 11.25 13.375 C12.58667863 21.98915119 12.36270495 29.31491547 7.8125 37 C4.15762145 41.09512528 0.74707115 43.73829117 -4.859375 44.23828125 C-11.59347125 44.40065159 -15.88968135 44.32474992 -21.1875 40 C-27.4696157 31.84801174 -27.91900102 24.01111401 -27.1875 14 C-25.60155956 7.7517768 -21.45882869 3.53460323 -16.1875 0 C-10.85743699 -1.77668767 -5.34894969 -1.67810186 0 0 Z"/>
<path transform="translate(660,482)" fill="#0B0B0B" d="M0 0 C5.28 0 10.56 0 16 0 C16 24.09 16 48.18 16 73 C10.72 73 5.44 73 0 73 C0 48.91 0 24.82 0 0 Z"/>
<path transform="translate(897.5,496.6875)" fill="#FCFCFC" d="M0 0 C5.3754144 4.97225832 6.40016873 6.6136811 7.5 14.3125 C-4.05 14.3125 -15.6 14.3125 -27.5 14.3125 C-26.50823496 7.37014474 -26.21316237 5.92092542 -21.5 1.3125 C-15.34615098 -3.19031636 -6.72620893 -3.24299359 0 0 Z"/>
<path transform="translate(539.8125,496.5625)" fill="#FCFCFC" d="M0 0 C3.55512044 2.37569659 6.4228573 5.52601088 8.1875 9.4375 C8.1875 11.0875 8.1875 12.7375 8.1875 14.4375 C-3.6925 14.4375 -15.5725 14.4375 -27.8125 14.4375 C-26.73448549 7.96941291 -25.20901975 4.88299422 -20.0546875 1.171875 C-13.80972124 -2.41834852 -6.57957934 -3.30409311 0 0 Z"/>
<path transform="translate(672,450)" fill="#0B0B0B" d="M0 0 C3.26250137 1.89818262 5.38735287 3.29284844 6.6953125 6.9375 C7.31132236 10.39764047 7.19136523 12.52158691 5.875 15.8125 C2.9521097 19.22253869 0.52943688 20.77221153 -3.9375 21.4375 C-7.8124426 20.88393677 -9.95425348 19.40826469 -13 17 C-14.72869779 13.54260443 -14.48966895 9.78024432 -14 6 C-10.41017261 0.25627618 -6.66214612 -1.06297693 0 0 Z"/>
<path transform="translate(706,512)" fill="#181818" d="M0 0 C0.33 0 0.66 0 1 0 C1.04898438 0.94101562 1.09796875 1.88203125 1.1484375 2.8515625 C1.22320313 4.09679687 1.29796875 5.34203125 1.375 6.625 C1.44460938 7.85476563 1.51421875 9.08453125 1.5859375 10.3515625 C1.9814487 13.83653855 2.76261849 16.73049601 4 20 C2.0625 19.375 2.0625 19.375 0 18 C-1.63447809 12.68794622 -1.31997976 6.52435647 -1 1 C-0.67 0.67 -0.34 0.34 0 0 Z"/>
<path transform="translate(672,467)" fill="#121212" d="M0 0 C0.99 0.33 1.98 0.66 3 1 C2.67 1.66 2.34 2.32 2 3 C-0.06640625 3.4140625 -0.06640625 3.4140625 -2.5625 3.625 C-3.38878906 3.69976562 -4.21507812 3.77453125 -5.06640625 3.8515625 C-6.02353516 3.92503906 -6.02353516 3.92503906 -7 4 C-5 2 -5 2 -2.375 1.875 C-1.59125 1.91625 -0.8075 1.9575 0 2 C0 1.34 0 0.68 0 0 Z"/>
</svg>